<svg xmlns="http://www.w3.org/2000/svg" xmlns:svg="http://www.w3.org/2000/svg" width="1536" height="1025.39" viewBox="0 0 406.39999 271.3011" id="svg1" xml:space="preserve">  <defs id="defs1"></defs>  <g id="layer1" transform="translate(0,0.36778069)">    <rect style="fill:#ffdfb9;fill-opacity:1;fill-rule:evenodd;stroke-width:0.169642;stroke-linejoin:round" id="rect1" width="406.39999" height="135.46666" x="0" y="-0.36778072"></rect>    <rect style="fill:#a4193d;fill-opacity:1;fill-rule:evenodd;stroke-width:0.146914;stroke-linejoin:round" id="rect1-1" width="406.39999" height="101.6" x="7.1054274e-15" y="169.33333"></rect>    <rect style="fill:#d27c7b;fill-opacity:1;fill-rule:evenodd;stroke-width:0.0848208;stroke-linejoin:round" id="rect1-1-0" width="406.39999" height="33.866665" x="0" y="135.46666"></rect>    <path style="font-weight:800;font-size:38.8056px;line-height:0;font-family:'Open Sans';-inkscape-font-specification:'Open Sans Ultra-Bold';text-align:center;letter-spacing:0.365125px;word-spacing:0.0185208px;text-anchor:middle;fill:#a4193d;fill-rule:evenodd;stroke-width:0.132292;stroke-linejoin:round" d="m 226.62604,54.558285 h -16.4469 V 26.856241 h 16.4469 v 6.006531 h -8.96242 v 4.35805 h 8.29924 v 6.006531 h -8.29924 v 5.229661 h 8.96242 z m 23.33016,-8.412933 q 0,2.254818 -1.13688,4.282259 -1.13689,2.008493 -3.54329,3.259064 -2.38745,1.250571 -6.17706,1.250571 -1.89481,0 -3.33486,-0.170533 -1.4211,-0.170532 -2.65272,-0.549493 -1.23163,-0.397909 -2.55799,-1.023195 v -6.669712 q 2.25482,1.136883 4.54753,1.74322 2.29271,0.58739 4.14962,0.58739 1.11794,0 1.81901,-0.265273 0.72003,-0.265273 1.0611,-0.720026 0.34106,-0.473701 0.34106,-1.080038 0,-0.720026 -0.5116,-1.212675 -0.49265,-0.511598 -1.59163,-1.061091 -1.09899,-0.549493 -2.89905,-1.364259 -1.5348,-0.720026 -2.78537,-1.477948 -1.23162,-0.757922 -2.12218,-1.724272 -0.87161,-0.985299 -1.34531,-2.292714 -0.4737,-1.307415 -0.4737,-3.088531 0,-2.671675 1.30741,-4.471739 1.32637,-1.819013 3.67593,-2.728519 2.3685,-0.909506 5.45703,-0.909506 2.70957,0 4.86965,0.606337 2.17903,0.606338 3.9033,1.383208 l -2.29271,5.779154 q -1.78112,-0.814766 -3.50539,-1.288467 -1.72428,-0.492649 -3.20222,-0.492649 -0.96635,0 -1.59164,0.246324 -0.60634,0.227377 -0.90951,0.625286 -0.28422,0.397909 -0.28422,0.909506 0,0.644233 0.49265,1.155831 0.5116,0.511597 1.68638,1.117934 1.19373,0.58739 3.24012,1.534792 2.02744,0.909506 3.44854,1.970597 1.4211,1.042143 2.16008,2.52009 0.75792,1.459 0.75792,3.619077 z m 14.23509,-19.289111 q 5.26756,0 7.88239,2.292713 2.63378,2.292714 2.63378,6.518128 0,1.894805 -0.54949,3.638025 -0.53055,1.743221 -1.76217,3.10748 -1.21268,1.364259 -3.24012,2.160077 -2.00849,0.795818 -4.96439,0.795818 h -2.10323 v 9.189803 h -7.48448 V 26.856241 Z m -0.17053,6.044427 h -1.9327 v 6.366543 h 1.47795 q 0.96635,0 1.80006,-0.322117 0.83372,-0.341064 1.32637,-1.080038 0.51159,-0.757922 0.51159,-2.008493 0,-1.307415 -0.77687,-2.122181 -0.77687,-0.833714 -2.4064,-0.833714 z m 32.80418,-0.0379 q 0,1.970596 -0.85266,3.410648 -0.83371,1.421103 -2.23587,2.33061 -1.38321,0.909506 -3.03169,1.364259 v 0.113688 q 3.31591,0.416857 5.11598,2.027441 1.81901,1.591636 1.81901,4.528583 0,2.273766 -1.21268,4.168571 -1.21267,1.875856 -3.77066,3.012739 -2.55799,1.117935 -6.57497,1.117935 -2.69062,0 -4.58543,-0.397909 -1.8948,-0.397909 -3.67592,-1.098987 v -6.214959 q 1.80007,0.928454 3.69487,1.383207 1.91375,0.435805 3.48644,0.435805 2.72852,0 3.71382,-0.77687 1.00424,-0.77687 1.00424,-2.084285 0,-0.947402 -0.4737,-1.610584 -0.4737,-0.663181 -1.76217,-1.023194 -1.26951,-0.360013 -3.65697,-0.360013 h -1.70532 v -5.62757 h 1.74322 q 2.12218,0 3.3538,-0.378961 1.25057,-0.378961 1.80007,-1.023194 0.54949,-0.663182 0.54949,-1.515844 0,-1.098987 -0.85266,-1.629532 -0.85266,-0.530545 -2.25482,-0.530545 -1.25057,0 -2.34956,0.341064 -1.09898,0.341065 -1.91375,0.757922 -0.81477,0.416857 -1.23162,0.68213 l -3.10748,-5.002284 q 1.72427,-1.174779 3.94119,-1.989545 2.23587,-0.814766 5.836,-0.814766 4.28226,0 6.72656,1.705324 2.46324,1.705324 2.46324,4.699116 z m 24.03124,21.695513 H 300.7523 v -4.926492 l 6.76445,-6.840245 q 2.10324,-2.197974 3.25907,-3.524337 1.17478,-1.326363 1.64848,-2.254817 0.4737,-0.928455 0.4737,-1.932701 0,-1.231623 -0.79582,-1.781116 -0.79582,-0.549494 -1.87586,-0.549494 -1.30741,0 -2.65272,0.757922 -1.32636,0.738974 -3.01274,2.197974 l -4.11173,-4.812804 q 1.25057,-1.117935 2.65273,-2.122182 1.40215,-1.023194 3.31591,-1.667428 1.91375,-0.644233 4.66122,-0.644233 2.82326,0 4.88859,0.985298 2.08429,0.985299 3.22117,2.709571 1.13688,1.705324 1.13688,3.884349 0,2.406402 -0.89055,4.301207 -0.87161,1.875857 -2.63378,3.770661 -1.76217,1.875857 -4.39595,4.263311 l -2.02744,1.819012 v 0.189481 h 10.47827 z" id="text2" aria-label="ESP32"></path>    <path style="font-weight:800;font-size:38.8056px;line-height:0;font-family:'Open Sans';-inkscape-font-specification:'Open Sans Ultra-Bold';text-align:center;letter-spacing:0.365125px;word-spacing:0.0185208px;text-anchor:middle;fill:#a4193d;fill-rule:evenodd;stroke-width:0.132292;stroke-linejoin:round" d="m 158.24616,105.45437 -5.66547,-19.952294 h -0.17053 q 0.0758,0.77687 0.15159,2.103233 0.0947,1.326363 0.17053,2.861155 0.0758,1.534792 0.0758,2.955895 v 12.032011 h -6.63182 V 77.752325 h 9.96668 l 5.77915,19.668072 h 0.15159 l 5.66546,-19.668072 h 9.98562 v 27.702045 h -6.87814 V 93.308671 q 0,-1.307415 0.0379,-2.804311 0.0568,-1.515844 0.11369,-2.842207 0.0758,-1.345311 0.13263,-2.122181 h -0.17053 l -5.58967,19.914398 z m 35.85481,-21.847099 q 4.07383,0 6.36655,2.027441 2.29271,2.008493 2.29271,5.741258 v 14.0784 h -5.13492 l -1.4211,-2.84221 h -0.15159 q -0.9095,1.13688 -1.87585,1.85691 -0.94741,0.70108 -2.17903,1.02319 -1.23162,0.34107 -3.01274,0.34107 -1.85691,0 -3.33485,-0.75792 -1.47795,-0.75792 -2.33061,-2.29272 -0.85267,-1.53479 -0.85267,-3.884345 0,-3.448545 2.38746,-5.115973 2.38745,-1.667428 6.91603,-1.875857 l 3.58119,-0.113688 v -0.303169 q 0,-1.440051 -0.72003,-2.046389 -0.70108,-0.606337 -1.8948,-0.606337 -1.26952,0 -2.84221,0.454753 -1.55374,0.435805 -3.12643,1.136883 l -2.14113,-4.888596 q 1.85691,-0.947403 4.20647,-1.440052 2.34956,-0.492649 5.26755,-0.492649 z m 1.28847,12.259386 -1.70532,0.07579 q -2.04639,0.07579 -2.88011,0.720026 -0.81476,0.625286 -0.81476,1.800064 0,1.098987 0.58739,1.629533 0.58739,0.5116 1.55374,0.5116 1.34531,0 2.29271,-0.852665 0.96635,-0.852662 0.96635,-2.216922 z m 28.73036,2.993791 q 0,2.046392 -0.90951,3.619082 -0.90951,1.57268 -2.918,2.46324 -1.98955,0.89056 -5.24861,0.89056 -2.29271,0 -4.11173,-0.24633 -1.80006,-0.24632 -3.65697,-0.9474 v -5.930736 q 2.02744,0.928454 4.13068,1.345316 2.10323,0.3979 3.3159,0.3979 1.25058,0 1.81902,-0.26527 0.58739,-0.284219 0.58739,-0.833712 0,-0.473702 -0.39791,-0.795818 -0.37896,-0.341065 -1.38321,-0.77687 -0.9853,-0.435805 -2.78536,-1.174779 -1.78112,-0.738974 -2.97485,-1.610584 -1.17478,-0.87161 -1.76216,-2.084285 -0.58739,-1.212675 -0.58739,-2.974843 0,-3.145376 2.42535,-4.737012 2.42535,-1.591636 6.42338,-1.591636 2.12218,0 3.99804,0.473701 1.87586,0.454753 3.88435,1.345311 l -2.02744,4.774908 q -1.59164,-0.720026 -3.22117,-1.155831 -1.62953,-0.435805 -2.59588,-0.435805 -0.87161,0 -1.34531,0.227377 -0.4737,0.227376 -0.4737,0.663181 0,0.397909 0.32211,0.701078 0.34107,0.303169 1.26952,0.701078 0.92846,0.397909 2.70957,1.117935 1.87586,0.757921 3.08854,1.629532 1.23162,0.852662 1.81901,2.084285 0.60634,1.231623 0.60634,3.126427 z m 14.99301,1.117935 q 1.00425,0 1.83796,-0.208428 0.83371,-0.208429 1.74322,-0.530546 v 5.400191 q -1.21268,0.53055 -2.57693,0.85266 -1.34532,0.34107 -3.44855,0.34107 -2.08428,0 -3.67592,-0.64423 -1.59164,-0.66319 -2.48219,-2.27377 -0.87161,-1.62953 -0.87161,-4.528583 V 89.53801 h -2.59589 v -3.01274 l 3.29696,-2.33061 1.91376,-4.509635 h 4.8507 v 4.301207 h 5.26755 v 5.551778 h -5.26755 v 8.356088 q 0,1.042143 0.53054,1.572688 0.53055,0.511597 1.47795,0.511597 z m 17.36152,-16.371112 q 3.12643,0 5.4002,1.098987 2.27376,1.080038 3.50539,3.259064 1.23162,2.179025 1.23162,5.457037 v 3.29696 h -13.24469 q 0.0947,1.686376 1.25058,2.766415 1.17477,1.080036 3.44854,1.080036 2.00849,0 3.67592,-0.39791 1.68638,-0.397905 3.46749,-1.231619 v 5.324399 q -1.55374,0.81477 -3.3917,1.19373 -1.83796,0.37896 -4.64227,0.37896 -3.24011,0 -5.7981,-1.15583 -2.55799,-1.15583 -4.03593,-3.58118 -1.459,-2.425352 -1.459,-6.233909 0,-3.865402 1.32636,-6.347596 1.32636,-2.501142 3.71382,-3.694869 2.38745,-1.212675 5.55177,-1.212675 z m 0.26528,5.04018 q -1.30742,0 -2.19798,0.833714 -0.87161,0.814766 -1.02319,2.576935 h 6.36654 q -0.0189,-0.947403 -0.37896,-1.724273 -0.36001,-0.776869 -1.06109,-1.231623 -0.68213,-0.454753 -1.70532,-0.454753 z m 27.38503,-5.04018 q 0.60634,0 1.26952,0.09474 0.66318,0.07579 0.9853,0.132637 l -0.66318,6.991829 q -0.36001,-0.09474 -0.92846,-0.151585 -0.56844,-0.07579 -1.59163,-0.07579 -0.70108,0 -1.4969,0.132636 -0.79582,0.132637 -1.51584,0.568442 -0.70108,0.416857 -1.15583,1.288467 -0.45476,0.852662 -0.45476,2.311662 v 10.554061 h -7.40868 V 83.986232 h 5.51388 l 1.15583,3.429596 h 0.36001 q 0.58739,-1.06109 1.4969,-1.913752 0.92845,-0.871611 2.06534,-1.383208 1.15583,-0.511597 2.3685,-0.511597 z m 15.39093,22.226059 q -3.25907,0 -5.66547,-1.15583 -2.4064,-1.17478 -3.73276,-3.60013 -1.30742,-2.444298 -1.30742,-6.252855 0,-3.903298 1.459,-6.385492 1.47795,-2.482194 4.03593,-3.656973 2.55799,-1.174779 5.79811,-1.174779 1.97059,0 3.73276,0.435805 1.78112,0.435805 3.29696,1.193727 l -2.17902,5.475985 q -1.32637,-0.587389 -2.4822,-0.928454 -1.13688,-0.360013 -2.3685,-0.360013 -1.11794,0 -1.9706,0.58739 -0.85266,0.587389 -1.32636,1.781116 -0.47371,1.174779 -0.47371,2.993791 0,1.856909 0.47371,2.993792 0.49264,1.136883 1.34531,1.64848 0.87161,0.511597 1.98954,0.511597 1.61059,0 3.20222,-0.492649 1.61059,-0.511597 3.05064,-1.402156 v 5.892838 q -1.32637,0.87162 -2.99379,1.38321 -1.66743,0.5116 -3.88435,0.5116 z m 18.91526,-0.37896 h -7.40869 V 75.971208 h 7.40869 z m 15.97832,-21.847099 q 4.07383,0 6.36654,2.027441 2.29272,2.008493 2.29272,5.741258 v 14.0784 h -5.13492 l -1.42111,-2.84221 h -0.15158 q -0.90951,1.13688 -1.87586,1.85691 -0.9474,0.70108 -2.17902,1.02319 -1.23163,0.34107 -3.01274,0.34107 -1.85691,0 -3.33486,-0.75792 -1.47795,-0.75792 -2.33061,-2.29272 -0.85266,-1.53479 -0.85266,-3.884345 0,-3.448545 2.38745,-5.115973 2.38746,-1.667428 6.91604,-1.875857 l 3.58118,-0.113688 v -0.303169 q 0,-1.440051 -0.72003,-2.046389 -0.70107,-0.606337 -1.8948,-0.606337 -1.26952,0 -2.84221,0.454753 -1.55374,0.435805 -3.12643,1.136883 l -2.14112,-4.888596 q 1.8569,-0.947403 4.20646,-1.440052 2.34956,-0.492649 5.26756,-0.492649 z m 1.28847,12.259386 -1.70533,0.07579 q -2.04639,0.07579 -2.8801,0.720026 -0.81477,0.625286 -0.81477,1.800064 0,1.098987 0.58739,1.629533 0.58739,0.5116 1.55374,0.5116 1.34531,0 2.29272,-0.852665 0.96635,-0.852662 0.96635,-2.216922 z m 28.73035,2.993791 q 0,2.046392 -0.90951,3.619082 -0.90951,1.57268 -2.918,2.46324 -1.98954,0.89056 -5.24861,0.89056 -2.29271,0 -4.11172,-0.24633 -1.80007,-0.24632 -3.65698,-0.9474 v -5.930736 q 2.02744,0.928454 4.13068,1.345316 2.10323,0.3979 3.3159,0.3979 1.25058,0 1.81902,-0.26527 0.58739,-0.284219 0.58739,-0.833712 0,-0.473702 -0.39791,-0.795818 -0.37896,-0.341065 -1.38321,-0.77687 -0.9853,-0.435805 -2.78536,-1.174779 -1.78112,-0.738974 -2.97485,-1.610584 -1.17477,-0.87161 -1.76216,-2.084285 -0.58739,-1.212675 -0.58739,-2.974843 0,-3.145376 2.42535,-4.737012 2.42535,-1.591636 6.42338,-1.591636 2.12219,0 3.99804,0.473701 1.87586,0.454753 3.88435,1.345311 l -2.02744,4.774908 q -1.59164,-0.720026 -3.22117,-1.155831 -1.62953,-0.435805 -2.59588,-0.435805 -0.87161,0 -1.34531,0.227377 -0.4737,0.227376 -0.4737,0.663181 0,0.397909 0.32211,0.701078 0.34107,0.303169 1.26952,0.701078 0.92846,0.397909 2.70957,1.117935 1.87586,0.757921 3.08854,1.629532 1.23162,0.852662 1.81901,2.084285 0.60634,1.231623 0.60634,3.126427 z m 20.4311,0 q 0,2.046392 -0.9095,3.619082 -0.90951,1.57268 -2.918,2.46324 -1.98955,0.89056 -5.24861,0.89056 -2.29272,0 -4.11173,-0.24633 -1.80006,-0.24632 -3.65697,-0.9474 v -5.930736 q 2.02744,0.928454 4.13067,1.345316 2.10324,0.3979 3.31591,0.3979 1.25057,0 1.81901,-0.26527 0.58739,-0.284219 0.58739,-0.833712 0,-0.473702 -0.39791,-0.795818 -0.37896,-0.341065 -1.3832,-0.77687 -0.9853,-0.435805 -2.78537,-1.174779 -1.78111,-0.738974 -2.97484,-1.610584 -1.17478,-0.87161 -1.76217,-2.084285 -0.58739,-1.212675 -0.58739,-2.974843 0,-3.145376 2.42535,-4.737012 2.42535,-1.591636 6.42339,-1.591636 2.12218,0 3.99804,0.473701 1.87585,0.454753 3.88435,1.345311 l -2.02744,4.774908 q -1.59164,-0.720026 -3.22117,-1.155831 -1.62953,-0.435805 -2.59588,-0.435805 -0.87161,0 -1.34531,0.227377 -0.47371,0.227376 -0.47371,0.663181 0,0.397909 0.32212,0.701078 0.34107,0.303169 1.26952,0.701078 0.92845,0.397909 2.70957,1.117935 1.87586,0.757921 3.08853,1.629532 1.23163,0.852662 1.81901,2.084285 0.60634,1.231623 0.60634,3.126427 z" id="text4" aria-label="Masterclass"></path>    <path d="m 136.55152,139.25004 -9.07612,27.70205 h -8.81084 l -9.03822,-27.70205 h 8.41293 l 3.77067,14.04051 q 0.20842,0.79581 0.4737,2.04638 0.28422,1.23163 0.51159,2.46325 0.24633,1.23162 0.30317,2.00849 0.0758,-0.77687 0.28422,-1.98954 0.20843,-1.21268 0.45476,-2.42535 0.26527,-1.23162 0.49265,-2.02744 l 3.84645,-14.1163 z m 23.42489,16.92061 q 0,2.69062 -0.73897,4.77491 -0.73897,2.08428 -2.14113,3.50539 -1.40215,1.4211 -3.3917,2.16007 -1.98954,0.72003 -4.49069,0.72003 -2.33061,0 -4.28225,-0.72003 -1.93271,-0.73897 -3.37276,-2.16007 -1.44005,-1.42111 -2.23587,-3.50539 -0.77687,-2.08429 -0.77687,-4.77491 0,-3.56223 1.28847,-6.02548 1.30742,-2.46325 3.71382,-3.75171 2.42535,-1.28847 5.77915,-1.28847 3.08853,0 5.49494,1.28847 2.4064,1.28846 3.77066,3.75171 1.3832,2.46325 1.3832,6.02548 z m -13.90786,0 q 0,1.83796 0.32211,3.10748 0.32212,1.25057 1.0232,1.91375 0.72003,0.64423 1.87586,0.64423 1.15583,0 1.83796,-0.64423 0.68213,-0.66318 0.98529,-1.91375 0.32212,-1.26952 0.32212,-3.10748 0,-1.83796 -0.32212,-3.06958 -0.30316,-1.23163 -1.00424,-1.85691 -0.68213,-0.62529 -1.85691,-0.62529 -1.68638,0 -2.4443,1.40216 -0.73897,1.40215 -0.73897,4.14962 z m 25.90709,10.78144 h -7.40869 v -29.48316 h 7.40869 z m 26.38079,-21.46814 v 21.46814 h -5.58967 l -0.92845,-2.67168 h -0.43581 q -0.66318,1.08004 -1.68638,1.76217 -1.00424,0.66318 -2.23586,0.96635 -1.23163,0.32212 -2.55799,0.32212 -2.10323,0 -3.80856,-0.81477 -1.68637,-0.81476 -2.69062,-2.55798 -0.9853,-1.74322 -0.9853,-4.49069 v -13.98366 h 7.40869 v 11.72884 q 0,2.08429 0.58739,3.18327 0.60633,1.08004 1.97059,1.08004 1.40216,0 2.16008,-0.75792 0.77687,-0.75792 1.08004,-2.23587 0.30317,-1.47795 0.30317,-3.60013 v -9.39823 z m 31.68625,-0.37896 q 3.67592,0 5.60862,1.87586 1.95165,1.87585 1.95165,6.00653 v 13.96471 h -7.40868 v -11.672 q 0,-2.4443 -0.66319,-3.3917 -0.64423,-0.96635 -1.9327,-0.96635 -1.80006,0 -2.50114,1.57269 -0.68213,1.57269 -0.68213,4.45279 v 10.00457 h -7.42763 v -11.672 q 0,-1.55374 -0.28422,-2.50114 -0.26528,-0.96635 -0.81477,-1.40216 -0.54949,-0.45475 -1.38321,-0.45475 -1.26952,0 -1.98954,0.77687 -0.70108,0.75792 -0.9853,2.23587 -0.28422,1.47795 -0.28422,3.61908 v 9.39823 h -7.40869 v -21.46814 h 5.58968 l 1.08004,2.65273 h 0.20842 q 0.56845,-0.87161 1.459,-1.55374 0.90951,-0.68213 2.14113,-1.08004 1.25057,-0.39791 2.84221,-0.39791 2.36851,0 3.9033,0.79582 1.53479,0.79582 2.50114,2.19797 h 0.22738 q 1.02319,-1.44005 2.63377,-2.21692 1.61059,-0.77687 3.61908,-0.77687 z m 22.62908,0 q 3.12643,0 5.40019,1.09899 2.27377,1.08004 3.50539,3.25906 1.23163,2.17903 1.23163,5.45704 v 3.29696 h -13.24469 q 0.0947,1.68637 1.25057,2.76641 1.17478,1.08004 3.44855,1.08004 2.00849,0 3.67592,-0.39791 1.68637,-0.39791 3.46749,-1.23162 v 5.3244 q -1.55374,0.81477 -3.3917,1.19373 -1.83796,0.37896 -4.64227,0.37896 -3.24012,0 -5.7981,-1.15583 -2.55799,-1.15583 -4.03594,-3.58118 -1.459,-2.42535 -1.459,-6.23391 0,-3.8654 1.32637,-6.3476 1.32636,-2.50114 3.71381,-3.69487 2.38746,-1.21267 5.55178,-1.21267 z m 0.26527,5.04018 q -1.30741,0 -2.19797,0.83371 -0.87161,0.81477 -1.0232,2.57694 h 6.36655 q -0.0189,-0.9474 -0.37896,-1.72427 -0.36002,-0.77687 -1.06109,-1.23163 -0.68213,-0.45475 -1.70533,-0.45475 z m 33.77521,-11.29304 q 2.74747,0 4.81281,0.73898 2.08428,0.73897 3.25906,2.25482 1.17478,1.49689 1.17478,3.77066 0,1.66743 -0.62529,2.93694 -0.60633,1.25058 -1.68637,2.19798 -1.06109,0.92845 -2.46325,1.61058 1.30742,0.73898 2.59588,1.72427 1.28847,0.9853 2.14113,2.33061 0.85267,1.32637 0.85267,3.16433 0,2.21692 -1.08004,3.97909 -1.08004,1.74322 -3.31591,2.76641 -2.23587,1.00425 -5.74126,1.00425 -3.50539,0 -5.74126,-0.96635 -2.23587,-0.96635 -3.29696,-2.69062 -1.04214,-1.74322 -1.04214,-4.01699 0,-1.9327 0.64423,-3.25906 0.66318,-1.32637 1.80007,-2.25482 1.13688,-0.92846 2.59588,-1.66743 -1.15583,-0.77687 -2.12218,-1.76217 -0.96635,-0.9853 -1.53479,-2.25482 -0.56844,-1.26952 -0.56844,-2.8801 0,-2.23587 1.19372,-3.73276 1.19373,-1.4969 3.29696,-2.23587 2.12218,-0.75793 4.8507,-0.75793 z m -3.29696,20.50179 q 0,1.15583 0.83372,1.87586 0.83371,0.72002 2.31166,0.72002 1.72427,0 2.52009,-0.64423 0.81476,-0.66318 0.81476,-1.80006 0,-0.85267 -0.51159,-1.5348 -0.49265,-0.70107 -1.15583,-1.21267 -0.66319,-0.5116 -1.15583,-0.79582 l -0.5116,-0.30317 q -0.85266,0.43581 -1.57269,0.9853 -0.70108,0.53055 -1.13688,1.21268 -0.43581,0.66318 -0.43581,1.49689 z m 3.25907,-15.10159 q -0.92846,0 -1.61059,0.54949 -0.68213,0.53055 -0.68213,1.459 0,0.60634 0.28422,1.13688 0.30317,0.5116 0.79582,0.94741 0.5116,0.4358 1.13688,0.79581 0.5495,-0.32211 1.08004,-0.70107 0.53055,-0.37896 0.89056,-0.90951 0.36001,-0.53055 0.36001,-1.26952 0,-0.92845 -0.68213,-1.459 -0.66318,-0.54949 -1.57268,-0.54949 z" id="text5" style="font-weight:800;font-size:38.8056px;line-height:0;font-family:'Open Sans';-inkscape-font-specification:'Open Sans Ultra-Bold';text-align:center;letter-spacing:0.365125px;word-spacing:0.0185208px;text-anchor:middle;fill:#33281b;fill-rule:evenodd;stroke-width:0.132292;stroke-linejoin:round" aria-label="Volume 8"></path>    <g id="text6" style="font-weight:800;font-size:28.2222px;line-height:1.2;font-family:'Open Sans';-inkscape-font-specification:'Open Sans Ultra-Bold';text-align:center;letter-spacing:0.365125px;word-spacing:0.0185208px;text-anchor:middle;fill:#ffdfb9;fill-rule:evenodd;stroke-width:0.132292;stroke-linejoin:round" aria-label="Industrial Communication &#10;Protocols">      <path style="font-weight:600;-inkscape-font-specification:'Open Sans Semi-Bold'" d="m 22.220668,210.53116 v -20.1469 h 3.307289 v 20.1469 z M 38.819069,194.9869 q 2.57693,0 4.010089,1.3367 1.446939,1.32291 1.446939,4.25813 v 9.94943 h -3.238388 v -9.34309 q 0,-1.77767 -0.730359,-2.65961 -0.73036,-0.89573 -2.259981,-0.89573 -2.21864,0 -3.086803,1.36426 -0.854383,1.36425 -0.854383,3.95496 v 7.57921 h -3.238388 v -15.25487 h 2.521808 l 0.454752,2.06705 H 34.0235 q 0.496094,-0.79926 1.226453,-1.30913 0.74414,-0.52366 1.653645,-0.78548 0.923285,-0.26183 1.915471,-0.26183 z m 15.468412,15.81987 q -2.728514,0 -4.382158,-1.98438 -1.639864,-1.99815 -1.639864,-5.88422 0,-3.9274 1.667424,-5.93934 1.681206,-2.01193 4.4235,-2.01193 1.157551,0 2.025714,0.31695 0.868164,0.30317 1.48828,0.82682 0.633897,0.52365 1.074869,1.17133 h 0.151584 q -0.0689,-0.42719 -0.165364,-1.22645 -0.08268,-0.81304 -0.08268,-1.50206 v -5.48459 h 3.252167 v 21.44226 h -2.535588 l -0.578776,-2.08084 h -0.137803 q -0.413411,0.66146 -1.047309,1.19889 -0.620116,0.52366 -1.48828,0.84061 -0.854383,0.31695 -2.025714,0.31695 z m 0.909504,-2.63206 q 2.080836,0 2.935219,-1.19889 0.854383,-1.19889 0.881944,-3.59667 v -0.4272 q 0,-2.56314 -0.826822,-3.9274 -0.826822,-1.37804 -3.017901,-1.37804 -1.750108,0 -2.673392,1.41938 -0.909505,1.4056 -0.909505,3.92741 0,2.5218 0.909505,3.8585 0.923284,1.32291 2.700952,1.32291 z m 25.197353,-12.89842 v 15.25487 h -2.549369 l -0.440972,-2.05328 h -0.179145 q -0.482313,0.78548 -1.226453,1.30914 -0.74414,0.50987 -1.653644,0.75792 -0.909505,0.26183 -1.915472,0.26183 -1.722546,0 -2.948999,-0.57878 -1.212673,-0.59256 -1.86035,-1.81901 -0.647678,-1.22645 -0.647678,-3.16948 v -9.96321 h 3.252168 v 9.35687 q 0,1.77767 0.716579,2.65961 0.73036,0.88194 2.259981,0.88194 1.4745,0 2.342663,-0.60633 0.868163,-0.60634 1.226453,-1.79145 0.37207,-1.18511 0.37207,-2.90766 v -7.59298 z m 15.247926,10.90027 q 0,1.50206 -0.73036,2.53559 -0.730359,1.03353 -2.135957,1.57096 -1.391818,0.52366 -3.417532,0.52366 -1.598523,0 -2.756075,-0.23427 -1.14377,-0.22049 -2.163518,-0.68902 v -2.79741 q 1.08865,0.50987 2.439126,0.88194 1.364257,0.37207 2.576929,0.37207 1.598523,0 2.301322,-0.49609 0.702799,-0.50988 0.702799,-1.35048 0,-0.49609 -0.289388,-0.88194 -0.275607,-0.39963 -1.047308,-0.81305 -0.75792,-0.42719 -2.23242,-1.01974 -1.446939,-0.57878 -2.439126,-1.15755 -0.992186,-0.57878 -1.50206,-1.39182 -0.509874,-0.82682 -0.509874,-2.1084 0,-2.02571 1.598523,-3.07302 1.612304,-1.06109 4.258135,-1.06109 1.405598,0 2.645831,0.28939 1.254014,0.2756 2.452906,0.81304 l -1.019747,2.43913 q -1.033528,-0.45476 -2.080836,-0.74414 -1.033528,-0.30317 -2.108397,-0.30317 -1.254014,0 -1.915472,0.38585 -0.647677,0.38585 -0.647677,1.10243 0,0.53743 0.316948,0.9095 0.316949,0.37207 1.08865,0.74414 0.785481,0.37207 2.177298,0.92329 1.364257,0.52365 2.356444,1.10243 1.005967,0.56499 1.543402,1.39181 0.537434,0.82683 0.537434,2.13596 z m 9.529066,2.01194 q 0.6339,0 1.25402,-0.11025 0.62011,-0.12402 1.12999,-0.28939 v 2.45291 q -0.53744,0.23427 -1.39182,0.39963 -0.85438,0.16537 -1.77767,0.16537 -1.29535,0 -2.32888,-0.4272 -1.03353,-0.44097 -1.63986,-1.50206 -0.606341,-1.06108 -0.606341,-2.93522 v -8.19932 h -2.080836 v -1.44694 l 2.23242,-1.14377 1.061087,-3.26594 h 2.0395 v 3.38997 h 4.36837 v 2.46668 h -4.36837 v 8.15798 q 0,1.15755 0.57877,1.72255 0.57878,0.565 1.52962,0.565 z m 13.58051,-13.2016 q 0.38585,0 0.8406,0.0413 0.45475,0.0413 0.78548,0.11024 l -0.30317,3.03169 q -0.28938,-0.0827 -0.71658,-0.12403 -0.41341,-0.0413 -0.74414,-0.0413 -0.86816,0 -1.65364,0.28939 -0.78548,0.27561 -1.39182,0.85438 -0.60633,0.565 -0.95084,1.41938 -0.34451,0.85438 -0.34451,1.98437 v 7.97884 h -3.25217 v -15.25487 h 2.53559 l 0.44097,2.68717 h 0.15158 q 0.45476,-0.81304 1.12999,-1.48828 0.67524,-0.67524 1.54341,-1.07487 0.88194,-0.41341 1.92925,-0.41341 z m 8.05457,0.28939 v 15.25487 h -3.23839 v -15.25487 z m -1.59852,-5.84288 q 0.74414,0 1.28157,0.39963 0.55122,0.39963 0.55122,1.37804 0,0.96462 -0.55122,1.37804 -0.53743,0.39963 -1.28157,0.39963 -0.7717,0 -1.30914,-0.39963 -0.52365,-0.41342 -0.52365,-1.37804 0,-0.97841 0.52365,-1.37804 0.53744,-0.39963 1.30914,-0.39963 z m 12.57453,5.55349 q 2.89388,0 4.36838,1.28157 1.48828,1.28158 1.48828,3.99631 v 10.26638 h -2.30132 l -0.62012,-2.16352 h -0.11024 q -0.64768,0.82682 -1.3367,1.36426 -0.68901,0.53743 -1.59852,0.79926 -0.89572,0.27561 -2.19108,0.27561 -1.36425,0 -2.43912,-0.4961 -1.07487,-0.50987 -1.69499,-1.5434 -0.62012,-1.03353 -0.62012,-2.61827 0,-2.35644 1.75011,-3.54156 1.76389,-1.18511 5.31922,-1.30913 l 2.64584,-0.0965 v -0.79926 q 0,-1.58475 -0.74414,-2.25999 -0.73036,-0.67523 -2.06706,-0.67523 -1.14377,0 -2.21864,0.33073 -1.07487,0.33072 -2.09462,0.81304 l -1.0473,-2.28754 q 1.11621,-0.59256 2.53558,-0.96463 1.43316,-0.37207 2.97656,-0.37207 z m 2.64584,8.25444 -1.9706,0.0689 q -2.42534,0.0827 -3.40375,0.82683 -0.97841,0.74414 -0.97841,2.03949 0,1.12999 0.67524,1.65365 0.67524,0.50987 1.77767,0.50987 1.68121,0 2.78364,-0.95085 1.11621,-0.96462 1.11621,-2.82497 z m 11.36186,7.28982 h -3.25217 V 189.0889 h 3.25217 z m 21.61225,-17.6251 q -1.44694,0 -2.59071,0.52366 -1.12999,0.52365 -1.91548,1.51584 -0.78548,0.9784 -1.19889,2.384 -0.41341,1.39182 -0.41341,3.14193 0,2.34266 0.66146,4.03765 0.66146,1.6812 2.01193,2.59071 1.35048,0.89572 3.41754,0.89572 1.28157,0 2.49424,-0.24805 1.21268,-0.24804 2.50803,-0.67523 v 2.81119 q -1.22645,0.48231 -2.48047,0.7028 -1.25401,0.22049 -2.89387,0.22049 -3.08681,0 -5.1263,-1.28158 -2.02572,-1.28157 -3.03168,-3.61046 -0.99219,-2.32888 -0.99219,-5.45702 0,-2.28754 0.6339,-4.18924 0.63389,-1.90169 1.84657,-3.27972 1.21267,-1.39182 2.99034,-2.13596 1.79144,-0.75792 4.09277,-0.75792 1.51584,0 2.97656,0.34451 1.4745,0.33073 2.72851,0.95084 l -1.15755,2.72852 q -1.04731,-0.4961 -2.19108,-0.85439 -1.14377,-0.35829 -2.37022,-0.35829 z m 22.8409,9.96321 q 0,1.90169 -0.49609,3.37619 -0.49609,1.4745 -1.44694,2.49425 -0.95084,1.00597 -2.28754,1.5434 -1.3367,0.52366 -3.0179,0.52366 -1.57096,0 -2.8801,-0.52366 -1.30913,-0.53743 -2.27376,-1.5434 -0.95085,-1.01975 -1.4745,-2.49425 -0.52365,-1.4745 -0.52365,-3.37619 0,-2.52181 0.86816,-4.27191 0.88194,-1.76389 2.50803,-2.68718 1.62608,-0.92328 3.87228,-0.92328 2.1084,0 3.7207,0.92328 1.61231,0.92329 2.52181,2.68718 0.9095,1.76388 0.9095,4.27191 z m -11.06563,0 q 0,1.66743 0.39963,2.85254 0.41341,1.18511 1.26779,1.81901 0.85438,0.62011 2.20486,0.62011 1.35048,0 2.20486,-0.62011 0.85438,-0.6339 1.25401,-1.81901 0.39963,-1.18511 0.39963,-2.85254 0,-1.66742 -0.39963,-2.82497 -0.39963,-1.17134 -1.25401,-1.77767 -0.85438,-0.62012 -2.21864,-0.62012 -2.01193,0 -2.93522,1.35048 -0.92328,1.35047 -0.92328,3.87228 z m 32.39071,-7.88237 q 2.56315,0 3.8585,1.32292 1.30914,1.32291 1.30914,4.24435 v 9.97699 h -3.23839 v -9.39821 q 0,-1.73633 -0.67524,-2.61828 -0.67524,-0.88194 -2.05328,-0.88194 -1.92925,0 -2.78363,1.24023 -0.8406,1.22646 -0.8406,3.56912 v 8.08908 h -3.23839 v -9.39821 q 0,-1.15756 -0.30317,-1.92926 -0.28939,-0.78548 -0.89572,-1.17133 -0.60634,-0.39963 -1.52962,-0.39963 -1.3367,0 -2.13596,0.60634 -0.78548,0.60633 -1.12999,1.79145 -0.34451,1.17133 -0.34451,2.88009 v 7.62055 h -3.23839 v -15.25487 h 2.52181 l 0.45475,2.05327 h 0.17915 q 0.46853,-0.79926 1.15755,-1.30913 0.7028,-0.52366 1.55718,-0.7717 0.85438,-0.26183 1.77767,-0.26183 1.70876,0 2.8801,0.60634 1.17133,0.59255 1.7501,1.819 h 0.24805 q 0.71658,-1.24023 1.99815,-1.83278 1.28158,-0.59256 2.71474,-0.59256 z m 27.29197,0 q 2.56315,0 3.85851,1.32292 1.30913,1.32291 1.30913,4.24435 v 9.97699 h -3.23838 v -9.39821 q 0,-1.73633 -0.67524,-2.61828 -0.67524,-0.88194 -2.05328,-0.88194 -1.92925,0 -2.78363,1.24023 -0.84061,1.22646 -0.84061,3.56912 v 8.08908 h -3.23838 v -9.39821 q 0,-1.15756 -0.30317,-1.92926 -0.28939,-0.78548 -0.89573,-1.17133 -0.60633,-0.39963 -1.52962,-0.39963 -1.33669,0 -2.13595,0.60634 -0.78549,0.60633 -1.12999,1.79145 -0.34451,1.17133 -0.34451,2.88009 v 7.62055 h -3.23839 v -15.25487 h 2.52181 l 0.45475,2.05327 h 0.17914 q 0.46854,-0.79926 1.15755,-1.30913 0.7028,-0.52366 1.55719,-0.7717 0.85438,-0.26183 1.77766,-0.26183 1.70877,0 2.8801,0.60634 1.17133,0.59255 1.75011,1.819 h 0.24805 q 0.71658,-1.24023 1.99815,-1.83278 1.28157,-0.59256 2.71473,-0.59256 z m 23.35078,0.28939 v 15.25487 h -2.54937 l -0.44097,-2.05328 h -0.17915 q -0.48231,0.78548 -1.22645,1.30914 -0.74414,0.50987 -1.65364,0.75792 -0.90951,0.26183 -1.91548,0.26183 -1.72254,0 -2.949,-0.57878 -1.21267,-0.59256 -1.86035,-1.81901 -0.64767,-1.22645 -0.64767,-3.16948 v -9.96321 h 3.25216 v 9.35687 q 0,1.77767 0.71658,2.65961 0.73036,0.88194 2.25998,0.88194 1.4745,0 2.34267,-0.60633 0.86816,-0.60634 1.22645,-1.79145 0.37207,-1.18511 0.37207,-2.90766 v -7.59298 z m 12.94661,-0.28939 q 2.57693,0 4.01009,1.3367 1.44694,1.32291 1.44694,4.25813 v 9.94943 h -3.23839 v -9.34309 q 0,-1.77767 -0.73036,-2.65961 -0.73036,-0.89573 -2.25998,-0.89573 -2.21864,0 -3.0868,1.36426 -0.85439,1.36425 -0.85439,3.95496 v 7.57921 h -3.23838 v -15.25487 h 2.5218 l 0.45476,2.06705 h 0.17914 q 0.49609,-0.79926 1.22645,-1.30913 0.74414,-0.52366 1.65365,-0.78548 0.92328,-0.26183 1.91547,-0.26183 z m 13.58051,0.28939 v 15.25487 h -3.23839 v -15.25487 z m -1.59852,-5.84288 q 0.74414,0 1.28157,0.39963 0.55122,0.39963 0.55122,1.37804 0,0.96462 -0.55122,1.37804 -0.53743,0.39963 -1.28157,0.39963 -0.7717,0 -1.30914,-0.39963 -0.52365,-0.41342 -0.52365,-1.37804 0,-0.97841 0.52365,-1.37804 0.53744,-0.39963 1.30914,-0.39963 z m 12.73988,21.37336 q -2.16352,0 -3.74826,-0.84061 -1.58474,-0.8406 -2.43913,-2.57693 -0.85438,-1.73632 -0.85438,-4.40972 0,-2.78363 0.93707,-4.54752 0.93706,-1.76389 2.59071,-2.60449 1.66742,-0.8406 3.81716,-0.8406 1.36426,0 2.46669,0.27561 1.11621,0.26182 1.88791,0.64767 l -0.96463,2.59071 q -0.8406,-0.3445 -1.72255,-0.57877 -0.88194,-0.23427 -1.69498,-0.23427 -1.3367,0 -2.23242,0.59256 -0.88194,0.59255 -1.32292,1.76389 -0.42719,1.17133 -0.42719,2.90765 0,1.68121 0.44097,2.83876 0.44098,1.14377 1.30914,1.73633 0.86816,0.57877 2.13596,0.57877 1.25401,0 2.2462,-0.30317 0.99218,-0.30316 1.87413,-0.78548 v 2.8112 q -0.86817,0.49609 -1.86035,0.73036 -0.99219,0.24805 -2.43913,0.24805 z m 14.2144,-15.81987 q 2.89388,0 4.36838,1.28157 1.48828,1.28158 1.48828,3.99631 v 10.26638 h -2.30133 l -0.62011,-2.16352 h -0.11025 q -0.64767,0.82682 -1.33669,1.36426 -0.68902,0.53743 -1.59853,0.79926 -0.89572,0.27561 -2.19107,0.27561 -1.36426,0 -2.43913,-0.4961 -1.07487,-0.50987 -1.69499,-1.5434 -0.62011,-1.03353 -0.62011,-2.61827 0,-2.35644 1.7501,-3.54156 1.76389,-1.18511 5.31923,-1.30913 l 2.64583,-0.0965 v -0.79926 q 0,-1.58475 -0.74414,-2.25999 -0.73036,-0.67523 -2.06706,-0.67523 -1.14377,0 -2.21864,0.33073 -1.07486,0.33072 -2.09461,0.81304 l -1.04731,-2.28754 q 1.11621,-0.59256 2.53559,-0.96463 1.43316,-0.37207 2.97656,-0.37207 z m 2.64583,8.25444 -1.97059,0.0689 q -2.42535,0.0827 -3.40376,0.82683 -0.9784,0.74414 -0.9784,2.03949 0,1.12999 0.67524,1.65365 0.67523,0.50987 1.77766,0.50987 1.68121,0 2.78364,-0.95085 1.11621,-0.96462 1.11621,-2.82497 z m 13.78721,4.94716 q 0.63389,0 1.25401,-0.11025 0.62012,-0.12402 1.12999,-0.28939 v 2.45291 q -0.53743,0.23427 -1.39182,0.39963 -0.85438,0.16537 -1.77767,0.16537 -1.29535,0 -2.32888,-0.4272 -1.03353,-0.44097 -1.63986,-1.50206 -0.60634,-1.06108 -0.60634,-2.93522 v -8.19932 h -2.08083 v -1.44694 l 2.23242,-1.14377 1.06108,-3.26594 h 2.0395 v 3.38997 h 4.36838 v 2.46668 h -4.36838 v 8.15798 q 0,1.15755 0.57877,1.72255 0.57878,0.565 1.52963,0.565 z m 9.08809,-12.91221 v 15.25487 h -3.23839 v -15.25487 z m -1.59852,-5.84288 q 0.74414,0 1.28157,0.39963 0.55122,0.39963 0.55122,1.37804 0,0.96462 -0.55122,1.37804 -0.53743,0.39963 -1.28157,0.39963 -0.7717,0 -1.30914,-0.39963 -0.52365,-0.41342 -0.52365,-1.37804 0,-0.97841 0.52365,-1.37804 0.53744,-0.39963 1.30914,-0.39963 z m 20.09863,13.43586 q 0,1.90169 -0.49609,3.37619 -0.49609,1.4745 -1.44694,2.49425 -0.95085,1.00597 -2.28754,1.5434 -1.3367,0.52366 -3.0179,0.52366 -1.57097,0 -2.8801,-0.52366 -1.30914,-0.53743 -2.27376,-1.5434 -0.95085,-1.01975 -1.4745,-2.49425 -0.52366,-1.4745 -0.52366,-3.37619 0,-2.52181 0.86817,-4.27191 0.88194,-1.76389 2.50803,-2.68718 1.62608,-0.92328 3.87228,-0.92328 2.1084,0 3.7207,0.92328 1.6123,0.92329 2.52181,2.68718 0.9095,1.76388 0.9095,4.27191 z m -11.06564,0 q 0,1.66743 0.39964,2.85254 0.41341,1.18511 1.26779,1.81901 0.85438,0.62011 2.20486,0.62011 1.35048,0 2.20486,-0.62011 0.85438,-0.6339 1.25401,-1.81901 0.39963,-1.18511 0.39963,-2.85254 0,-1.66742 -0.39963,-2.82497 -0.39963,-1.17134 -1.25401,-1.77767 -0.85438,-0.62012 -2.21864,-0.62012 -2.01194,0 -2.93522,1.35048 -0.92329,1.35047 -0.92329,3.87228 z m 23.10273,-7.88237 q 2.57693,0 4.01009,1.3367 1.44694,1.32291 1.44694,4.25813 v 9.94943 h -3.23839 v -9.34309 q 0,-1.77767 -0.73036,-2.65961 -0.73036,-0.89573 -2.25998,-0.89573 -2.21864,0 -3.0868,1.36426 -0.85439,1.36425 -0.85439,3.95496 v 7.57921 h -3.23839 v -15.25487 h 2.52181 l 0.45476,2.06705 h 0.17914 q 0.49609,-0.79926 1.22645,-1.30913 0.74414,-0.52366 1.65365,-0.78548 0.92328,-0.26183 1.91547,-0.26183 z" id="path1"></path>      <path style="font-weight:600;-inkscape-font-specification:'Open Sans Semi-Bold'" d="m 148.78043,224.2509 q 3.89984,0 5.69129,1.59852 1.79145,1.59852 1.79145,4.47862 0,1.30914 -0.41341,2.49425 -0.39963,1.17133 -1.32292,2.08083 -0.92328,0.89573 -2.43912,1.41938 -1.50206,0.52366 -3.70692,0.52366 h -2.14974 v 7.55164 h -3.30729 v -20.1469 z m -0.22049,2.74229 h -2.32888 v 7.09689 h 1.80523 q 1.55718,0 2.64583,-0.35829 1.08865,-0.37207 1.65364,-1.17133 0.565,-0.79926 0.565,-2.1084 0,-1.7501 -1.06109,-2.60449 -1.04731,-0.85438 -3.27973,-0.85438 z m 19.4785,1.86035 q 0.38585,0 0.8406,0.0413 0.45476,0.0413 0.78548,0.11025 l -0.30316,3.03168 q -0.28939,-0.0827 -0.71658,-0.12403 -0.41341,-0.0413 -0.74414,-0.0413 -0.86817,0 -1.65365,0.28939 -0.78548,0.27561 -1.39181,0.85438 -0.60634,0.565 -0.95085,1.41938 -0.34451,0.85438 -0.34451,1.98438 v 7.97883 h -3.25217 v -15.25487 h 2.53559 l 0.44097,2.68717 h 0.15159 q 0.45475,-0.81304 1.12999,-1.48828 0.67524,-0.67524 1.5434,-1.07487 0.88194,-0.41341 1.92925,-0.41341 z m 18.32095,7.88237 q 0,1.9017 -0.49609,3.37619 -0.4961,1.4745 -1.44694,2.49425 -0.95085,1.00597 -2.28754,1.5434 -1.3367,0.52366 -3.01791,0.52366 -1.57096,0 -2.88009,-0.52366 -1.30914,-0.53743 -2.27377,-1.5434 -0.95084,-1.01975 -1.47449,-2.49425 -0.52366,-1.47449 -0.52366,-3.37619 0,-2.5218 0.86816,-4.27191 0.88195,-1.76389 2.50803,-2.68717 1.62609,-0.92329 3.87229,-0.92329 2.10839,0 3.7207,0.92329 1.6123,0.92328 2.5218,2.68717 0.90951,1.76389 0.90951,4.27191 z m -11.06564,0 q 0,1.66743 0.39963,2.85254 0.41341,1.18511 1.2678,1.81901 0.85438,0.62012 2.20486,0.62012 1.35047,0 2.20485,-0.62012 0.85439,-0.6339 1.25402,-1.81901 0.39963,-1.18511 0.39963,-2.85254 0,-1.66742 -0.39963,-2.82497 -0.39963,-1.17133 -1.25402,-1.77767 -0.85438,-0.62012 -2.21864,-0.62012 -2.01193,0 -2.93521,1.35048 -0.92329,1.35048 -0.92329,3.87228 z m 20.82898,5.31923 q 0.63389,0 1.25401,-0.11025 0.62012,-0.12402 1.12999,-0.28938 v 2.4529 q -0.53743,0.23427 -1.39182,0.39963 -0.85438,0.16537 -1.77767,0.16537 -1.29535,0 -2.32888,-0.42719 -1.03353,-0.44098 -1.63986,-1.50206 -0.60634,-1.06109 -0.60634,-2.93522 v -8.19932 h -2.08083 v -1.44694 l 2.23242,-1.14377 1.06108,-3.26595 h 2.0395 v 3.38997 h 4.36838 v 2.46669 h -4.36838 v 8.15798 q 0,1.15755 0.57877,1.72254 0.57878,0.565 1.52963,0.565 z m 19.35448,-5.31923 q 0,1.9017 -0.4961,3.37619 -0.49609,1.4745 -1.44694,2.49425 -0.95084,1.00597 -2.28754,1.5434 -1.33669,0.52366 -3.0179,0.52366 -1.57096,0 -2.8801,-0.52366 -1.30913,-0.53743 -2.27376,-1.5434 -0.95084,-1.01975 -1.4745,-2.49425 -0.52365,-1.47449 -0.52365,-3.37619 0,-2.5218 0.86816,-4.27191 0.88195,-1.76389 2.50803,-2.68717 1.62608,-0.92329 3.87228,-0.92329 2.1084,0 3.7207,0.92329 1.61231,0.92328 2.52181,2.68717 0.90951,1.76389 0.90951,4.27191 z m -11.06564,0 q 0,1.66743 0.39963,2.85254 0.41341,1.18511 1.26779,1.81901 0.85439,0.62012 2.20486,0.62012 1.35048,0 2.20486,-0.62012 0.85438,-0.6339 1.25402,-1.81901 0.39963,-1.18511 0.39963,-2.85254 0,-1.66742 -0.39963,-2.82497 -0.39964,-1.17133 -1.25402,-1.77767 -0.85438,-0.62012 -2.21864,-0.62012 -2.01193,0 -2.93522,1.35048 -0.92328,1.35048 -0.92328,3.87228 z m 21.2975,7.9375 q -2.16352,0 -3.74826,-0.8406 -1.58474,-0.84061 -2.43913,-2.57693 -0.85438,-1.73633 -0.85438,-4.40972 0,-2.78364 0.93707,-4.54753 0.93706,-1.76388 2.59071,-2.60449 1.66742,-0.8406 3.81716,-0.8406 1.36426,0 2.46669,0.27561 1.11621,0.26183 1.88791,0.64768 l -0.96463,2.59071 q -0.8406,-0.34451 -1.72255,-0.57878 -0.88194,-0.23427 -1.69498,-0.23427 -1.3367,0 -2.23242,0.59256 -0.88194,0.59256 -1.32292,1.76389 -0.42719,1.17133 -0.42719,2.90766 0,1.6812 0.44097,2.83875 0.44098,1.14377 1.30914,1.73633 0.86816,0.57877 2.13596,0.57877 1.25401,0 2.2462,-0.30316 0.99218,-0.30317 1.87413,-0.78548 v 2.81119 q -0.86817,0.49609 -1.86035,0.73036 -0.99219,0.24805 -2.43913,0.24805 z m 21.73849,-7.9375 q 0,1.9017 -0.4961,3.37619 -0.49609,1.4745 -1.44693,2.49425 -0.95085,1.00597 -2.28755,1.5434 -1.33669,0.52366 -3.0179,0.52366 -1.57096,0 -2.88009,-0.52366 -1.30914,-0.53743 -2.27377,-1.5434 -0.95084,-1.01975 -1.4745,-2.49425 -0.52365,-1.47449 -0.52365,-3.37619 0,-2.5218 0.86816,-4.27191 0.88195,-1.76389 2.50803,-2.68717 1.62608,-0.92329 3.87229,-0.92329 2.10839,0 3.7207,0.92329 1.6123,0.92328 2.5218,2.68717 0.90951,1.76389 0.90951,4.27191 z m -11.06564,0 q 0,1.66743 0.39963,2.85254 0.41341,1.18511 1.26779,1.81901 0.85439,0.62012 2.20486,0.62012 1.35048,0 2.20486,-0.62012 0.85439,-0.6339 1.25402,-1.81901 0.39963,-1.18511 0.39963,-2.85254 0,-1.66742 -0.39963,-2.82497 -0.39963,-1.17133 -1.25402,-1.77767 -0.85438,-0.62012 -2.21864,-0.62012 -2.01193,0 -2.93522,1.35048 -0.92328,1.35048 -0.92328,3.87228 z m 18.40363,7.66189 h -3.25217 v -21.44226 h 3.25217 z m 15.23414,-4.3546 q 0,1.50206 -0.73036,2.53559 -0.73036,1.03353 -2.13595,1.57096 -1.39182,0.52366 -3.41754,0.52366 -1.59852,0 -2.75607,-0.23427 -1.14377,-0.22048 -2.16352,-0.68902 v -2.79741 q 1.08865,0.50987 2.43913,0.88194 1.36425,0.37207 2.57693,0.37207 1.59852,0 2.30132,-0.49609 0.7028,-0.50988 0.7028,-1.35048 0,-0.49609 -0.28939,-0.88194 -0.27561,-0.39963 -1.04731,-0.81304 -0.75792,-0.4272 -2.23242,-1.01975 -1.44694,-0.57878 -2.43912,-1.15755 -0.99219,-0.57878 -1.50206,-1.39182 -0.50988,-0.82682 -0.50988,-2.1084 0,-2.02571 1.59852,-3.07302 1.61231,-1.06109 4.25814,-1.06109 1.4056,0 2.64583,0.28939 1.25401,0.27561 2.45291,0.81304 l -1.01975,2.43913 q -1.03353,-0.45476 -2.08084,-0.74414 -1.03352,-0.30317 -2.10839,-0.30317 -1.25402,0 -1.91548,0.38585 -0.64767,0.38585 -0.64767,1.10243 0,0.53743 0.31695,0.9095 0.31694,0.37207 1.08864,0.74414 0.78549,0.37207 2.1773,0.92329 1.36426,0.52365 2.35645,1.10243 1.00596,0.56499 1.5434,1.39182 0.53743,0.82682 0.53743,2.13595 z" id="path4"></path>    </g>    <rect style="fill:#1b1b24;fill-opacity:0.867947;fill-rule:evenodd;stroke-width:0.101477;stroke-linejoin:round" id="rect2" width="79.375" height="79.375" x="26.458334" y="26.458334"></rect>    <g style="fill:none" id="g2" transform="matrix(0.13230457,0,0,0.12632585,39.687499,40.880693)">      <g fill="#e7352c" id="g3">        <path d="m 131.967,298.073 a 28.186,28.186 0 0 1 -33.688,27.647 28.185,28.185 0 0 1 -22.147,-22.147 28.19,28.19 0 0 1 47.579,-25.432 28.19,28.19 0 0 1 8.256,19.932 z m 245.94,-29.342 A 292.167,292.167 0 0 0 130.305,21.129 185.334,185.334 0 0 0 89.355,50.651 V 77.887 A 231.984,231.984 0 0 1 321.15,309.49 h 27.237 a 195.21,195.21 0 0 0 29.521,-40.759 z" id="path1-6"></path>        <path d="M 399.961,183.228 A 183.219,183.219 0 0 0 286.193,13.675 183.225,183.225 0 0 0 215.783,0.002 c -6.475,0 -12.761,0 -19.046,0.953 l -4.19,12.19 a 315.224,315.224 0 0 1 193.13,192.939 l 12.189,-4.381 c 0,-6.095 1.143,-12.19 1.143,-19.046 M 217.891,399.964 A 217.891,217.891 0 0 1 0.001,183.026 216.367,216.367 0 0 1 63.806,28.941 l 12.38,11.619 a 201.127,201.127 0 0 0 0,285.695 201.133,201.133 0 0 0 285.695,0 l 11.619,11.618 a 216.184,216.184 0 0 1 -155.609,62.091 z" id="path2"></path>        <path d="M 215.438,322.074 A 126.65,126.65 0 0 0 165.727,209.51 123.998,123.998 0 0 0 101.922,183.607 11.615,11.615 0 0 1 91.827,171.418 a 11.24,11.24 0 0 1 7.945,-9.865 11.222,11.222 0 0 1 4.436,-0.42 149.516,149.516 0 0 1 133.324,163.417 130.44,130.44 0 0 1 -4.952,25.713 l 33.14,9.332 a 183.963,183.963 0 0 0 28.57,-10.856 202.753,202.753 0 0 0 3.619,-39.045 209.512,209.512 0 0 0 -177.702,-206.843 92.199,92.199 0 0 0 -33.332,0 72.567,72.567 0 0 0 -35.997,22.284 71.234,71.234 0 0 0 31.807,114.278 164.882,164.882 0 0 0 17.904,3.238 66.856,66.856 0 0 1 55.615,65.9 66.09,66.09 0 0 1 -10.666,35.998 l 22.856,14.666 a 169.675,169.675 0 0 0 34.283,5.713 125.335,125.335 0 0 0 12.571,-43.806" id="path3"></path>      </g>    </g>  </g></svg>